{"title":"The Block - S12E28","uid":16004944,"size":506815766,"categoryP":"video","categoryS":"tv_shows","magnet":"?xt=urn:btih:25e13d8818d8548742920b945f1819ce41e6d702&amp;dn=The+Block+-+S12E28&amp;tr=udp%3A%2F%2Ftracker.leechers-paradise.org%3A6969&amp;tr=udp%3A%2F%2Fzer0day.ch%3A1337&amp;tr=udp%3A%2F%2Fopen.demonii.com%3A1337&amp;tr=udp%3A%2F%2Ftracker.coppersurfer.tk%3A6969&amp;tr=udp%3A%2F%2Fexodus.desync.com%3A6969","seeders":4,"leechers":1,"uploader":"Bullrout","files":1,"time":1476166510,"description":"The Block - S12E28 - Hallways, Laundries &amp; Powder Rooms Revealed\r\n\r\nTempers fray and frustration takes hold as room reveal looms and it becomes clear that some teams will not finish. However there's plenty of wows from the judges, and one team walks away with $10,000.\r\n\r\nComplete name : The Block - S12E28 - Hallways, Laundries &amp; Powder Rooms Revealed.mp4\r\nFormat : MPEG-4\r\nFormat profile : Base Media / Version 2\r\nCodec ID : mp42 (mp42/isom/avc1)\r\nFile size : 483 MiB\r\nDuration : 1 h 1 min\r\nOverall bit rate mode : Variable\r\nOverall bit rate : 1 104 kb/s\r\n\r\nVideo\r\nID : 2\r\nFormat : AVC\r\nFormat/Info : Advanced Video Codec\r\nFormat profile :   \r\nFormat settings, CABAC : Yes\r\nFormat settings, ReFrames : 3 frames\r\nCodec ID : avc1\r\nCodec ID/Info : Advanced Video Coding\r\nDuration : 1 h 1 min\r\nBit rate mode : Variable\r\nBit rate : 972 kb/s\r\nMaximum bit rate : 1 000 kb/s\r\nWidth : 720 pixels\r\nHeight : 404 pixels\r\nDisplay aspect ratio : 16:9\r\nOriginal display aspect ratio : 16:9\r\nFrame rate mode : Constant\r\nFrame rate : 25.000 FPS\r\nStandard : PAL\r\nColor space : YUV\r\nChroma subsampling : 4:2:0\r\nBit depth : 8 bits\r\nScan type : Progressive\r\nBits/(Pixel*Frame) : 0.134\r\nStream size : 426 MiB (88%)\r\nWriting library : x264 core 112\r\nColor range : Limited\r\nColor primaries : BT.601 PAL\r\nTransfer characteristics : BT.470 System B, BT.470 System G\r\nMatrix coefficients : BT.601\r\n\r\nAudio\r\nID : 1\r\nFormat : AAC\r\nFormat/Info : Advanced Audio Codec\r\nFormat profile : LC\r\nCodec ID : 40\r\nDuration : 1 h 1 min\r\nBit rate mode : Variable\r\nBit rate : 128 kb/s\r\nMaximum bit rate : 576 kb/s\r\nChannel(s) : 2 channels\r\nChannel positions : Front: L R\r\nSampling rate : 48.0 kHz\r\nFrame rate : 46.875 FPS (1024 spf)\r\nCompression mode : Lossy\r\nStream size : 56.1 MiB (12%)","torrent":{"xt":"urn:btih:25e13d8818d8548742920b945f1819ce41e6d702","amp;dn":"The+Block+-+S12E28","amp;tr":["udp%3A%2F%2Ftracker.leechers-paradise.org%3A6969","udp%3A%2F%2Fzer0day.ch%3A1337","udp%3A%2F%2Fopen.demonii.com%3A1337","udp%3A%2F%2Ftracker.coppersurfer.tk%3A6969","udp%3A%2F%2Fexodus.desync.com%3A6969"],"infoHash":"25e13d8818d8548742920b945f1819ce41e6d702","infoHashBuffer":{"type":"Buffer","data":[37,225,61,136,24,216,84,135,66,146,11,148,95,24,25,206,65,230,215,2]},"announce":[],"urlList":[]}}